<?xml version="1.0" encoding="utf-8"?>
<!-- Generator: Adobe Illustrator 26.1.0, SVG Export Plug-In . SVG Version: 6.00 Build 0)  -->
<svg version="1.1" id="레이어_1" xmlns="http://www.w3.org/2000/svg" xmlns:xlink="http://www.w3.org/1999/xlink" x="0px"
	 y="0px" viewBox="0 0 606.98 220.93" style="enable-background:new 0 0 606.98 220.93;" xml:space="preserve">
<g>
	<path d="M212.68,19.57c1.4,2.74,12.64,23.81,12.64,23.81v11.5c0,2.34-0.47,3.34-1.47,3.95c0,0.13,0,0.47,0,0.47h8.29
		c0,0,0-0.33,0-0.47c-1.07-0.6-1.54-1.61-1.54-3.95V42.64l8.56-18.39c3.41-7.22,4.88-8.63,7.96-11.23v-0.53h-7.89v0.53
		c2.41,2.01,2.74,3.81-0.07,10.1l-9.09,19.33l-10.7-20.13c-2.54-4.75-2.54-7.56-0.8-9.3v-0.53h-11.7v0.53
		C208.93,14.75,211.21,16.89,212.68,19.57z"/>
	<path d="M261.16,59.69c8.96,0,18.12-7.02,18.12-17.72c0-9.23-7.76-14.85-16.72-14.85c-8.96,0-18.12,6.69-18.12,17.72
		C244.44,54.21,252.13,59.69,261.16,59.69z M257.42,28.33c7.62-2.21,13.91,3.48,16.25,11.5c2.34,8.09,0.27,16.45-7.36,18.66
		c-7.62,2.27-13.91-3.48-16.25-11.5C247.72,38.89,249.79,30.53,257.42,28.33z"/>
	<path d="M300.69,59.69c8.96,0,18.12-7.02,18.12-17.72c0-9.23-7.76-14.85-16.72-14.85c-8.96,0-18.12,6.69-18.12,17.72
		C283.97,54.21,291.66,59.69,300.69,59.69z M296.94,28.33c7.62-2.21,13.91,3.48,16.25,11.5c2.34,8.09,0.27,16.45-7.36,18.66
		c-7.62,2.27-13.91-3.48-16.25-11.5C287.24,38.89,289.32,30.53,296.94,28.33z"/>
	<path d="M354.65,54.87c-0.27-2.47-0.94-9.5-1.61-15.98c-0.8-8.02-5.48-11.77-10.97-11.77c-8.69,0-10.97,9.09-11.84,16.58V27.12
		h-0.47l-6.29,1.47c0,0,0,0.33,0,0.47c1.27,0.2,1.47,0.87,1.47,3.21v22.6c0,2.34-0.47,3.34-1.47,3.95c0,0.13,0,0.47,0,0.47h8.29
		c0,0,0-0.33,0-0.47c-1.07-0.6-1.54-1.61-1.54-3.95v-5.48c0-5.62,1.4-19.59,8.89-21.07c5.75-1.14,8.23,4.55,8.69,9.56
		c0.33,3.48,1.34,14.78,1.54,16.99c0.2,2.21-0.07,3.34-1.14,3.95c0,0.13,0,0.47,0,0.47h8.29c0,0,0-0.33,0-0.47
		C355.52,58.22,354.92,57.28,354.65,54.87z"/>
	<path d="M364.22,19.03c0.94,0,1.74-0.4,2.41-1c-0.8,2.61-2.54,4.61-5.15,6.89l0.33,0.33c3.74-3.01,6.02-6.22,6.02-9.83
		c0-2.01-1.67-3.68-3.61-3.68c-2.01,0-3.68,1.67-3.68,3.68C360.54,17.36,362.21,19.03,364.22,19.03z"/>
	<path d="M399.06,50.46c0.74-10.9-21.8-8.49-20.86-17.45c0.33-2.74,2.88-5.28,7.42-5.28c3.81,0,8.09,4.15,10.16,9.83h0.33l1.34-6.15
		c-2.68-2.07-7.22-4.28-10.7-4.28c-7.29,0-9.7,3.95-10.23,8.29c-1.61,13.11,21.73,9.23,20.46,17.99c-0.4,2.88-4.01,5.35-8.83,5.35
		c-5.95,0-10.97-5.55-13.24-10.23h-0.33l-1.4,6.69c3.61,2.67,7.62,4.48,13.04,4.48C393.71,59.69,398.66,55.74,399.06,50.46z"/>
	<path d="M58.41,116.34c15.6-1.95,30.3-7.95,30.3-24c0-21.15-24.9-25.05-44.25-25.05H9.66c0,0,0,0.9,0,1.2
		c2.25,1.35,3.3,3.6,3.3,8.85v85.05c0,5.25-1.05,7.5-3.3,8.85c0,0.3,0,1.05,0,1.05h41.25c19.35,0,44.25-7.05,44.25-28.2
		C95.16,125.79,76.11,117.99,58.41,116.34z M24.81,68.49h19.65c24.6,0,32.4,10.5,32.4,23.85c0,13.2-7.8,23.55-32.4,23.55H24.81
		V68.49z M50.91,171.24h-26.1v-54.15h26.1c24.6,0,32.55,13.8,32.55,27C83.46,157.44,75.51,171.24,50.91,171.24z"/>
	<path d="M146.31,100.14c-20.1,0-40.65,15-40.65,39.75c0,21,17.25,33.3,37.5,33.3c20.1,0,40.65-15.75,40.65-39.75
		C183.81,112.74,166.41,100.14,146.31,100.14z M154.71,170.49c-17.1,5.1-31.2-7.8-36.45-25.8c-5.25-18.15-0.6-36.9,16.5-41.85
		c17.1-4.95,31.2,7.8,36.45,25.8C176.46,146.79,171.81,165.54,154.71,170.49z"/>
	<path d="M260.76,162.39v-62.25h-1.05l-14.1,3.3c0,0,0,0.75,0,1.05c2.85,0.45,3.3,1.95,3.3,7.2v11.55c0,12.6-3,43.95-19.8,47.25
		c-12.9,2.4-19.65-8.4-19.65-21.45v-48.9h-1.05l-14.1,3.3c0,0,0,0.75,0,1.05c2.85,0.45,3.3,1.95,3.3,7.2v35.1
		c0,17.7,10.95,26.4,24.75,26.4c19.5,0,24.6-20.4,26.55-37.35v36.45h15.3c0,0,0-0.75,0-1.05
		C261.81,169.89,260.76,167.64,260.76,162.39z"/>
	<path d="M308.76,170.49c-12.75,1.65-16.35-8.4-16.35-21.45v-47.7h17.7v-1.2h-33.15c9-0.45,20.4-9,20.4-20.55h-11.85
		c0,7.2-1.05,20.55-13.8,20.55v1.2h8.85v45.45c0,17.7,8.25,26.4,21.6,26.4c15.75,0,22.05-13.05,24.9-27.15l-0.75-0.3
		C323.61,157.29,318.66,169.14,308.76,170.49z"/>
	<circle cx="337.41" cy="80.94" r="7.05"/>
	<path d="M343.71,162.39v-62.25h-1.05l-14.1,3.3c0,0,0,0.75,0,1.05c2.85,0.45,3.3,1.95,3.3,7.2v50.7c0,5.25-1.05,7.5-3.3,8.85
		c0,0.3,0,1.05,0,1.05h18.6c0,0,0-0.75,0-1.05C344.76,169.89,343.71,167.64,343.71,162.39z"/>
	<path d="M428.75,197.64v-97.5c0,0-0.6,0-0.9,0c-0.3,1.05-1.05,3-3.15,3.15c-3,0.15-8.85-3.15-16.65-3.15
		c-16.8,0-51.3,6.3-50.25,43.35c0.45,19.2,15.45,29.7,27.75,29.7c21,0,28.65-23.7,31.35-41.1v77.1h1.2l14.1-3.3c0,0,0-0.75,0-1.05
		C429.2,204.39,428.75,202.89,428.75,197.64z M416.9,123.24c0,12.6-7.8,43.95-24.75,47.25c-12.75,2.4-22.05-11.7-22.8-24.75
		c-2.1-38.25,24.15-44.55,38.55-44.85c4.8,0,8.25,1.2,9,1.35V123.24z"/>
	<path d="M509.15,162.39v-62.25h-1.05l-14.1,3.3c0,0,0,0.75,0,1.05c2.85,0.45,3.3,1.95,3.3,7.2v11.55c0,12.6-3,43.95-19.8,47.25
		c-12.9,2.4-19.65-8.4-19.65-21.45v-48.9h-1.05l-14.1,3.3c0,0,0,0.75,0,1.05c2.85,0.45,3.3,1.95,3.3,7.2v35.1
		c0,17.7,10.95,26.4,24.75,26.4c19.5,0,24.6-20.4,26.55-37.35v36.45h15.3c0,0,0-0.75,0-1.05
		C510.2,169.89,509.15,167.64,509.15,162.39z"/>
	<path d="M581,123.84h3.3c0,0,9.3,0,10.65,0c-2.1-18.15-19.65-24.3-32.4-23.7c-16.5,0.9-40.05,12.15-39.3,38.1
		c0.6,24.75,20.55,34.95,41.25,34.95c21.3,0,30.75-14.1,31.65-24.75C597.35,134.79,589.55,126.09,581,123.84z M555.8,101.94
		c14.7-2.85,26.4,7.65,28.35,20.7H536.3C539,112.44,545.6,103.89,555.8,101.94z M594.8,148.74c-1.5,11.7-12.75,20.55-25.65,21.15
		c-15.3,0.6-26.55-6.3-32.1-22.05c-2.55-7.2-3-16.05-1.05-24h38.85C586.25,123.84,596.6,133.14,594.8,148.74z"/>
</g>
</svg>
