<?xml version="1.0" encoding="utf-8"?>
<!-- Generator: Adobe Illustrator 26.1.0, SVG Export Plug-In . SVG Version: 6.00 Build 0)  -->
<svg version="1.1" id="레이어_1" xmlns="http://www.w3.org/2000/svg" xmlns:xlink="http://www.w3.org/1999/xlink" x="0px"
	 y="0px" viewBox="0 0 1091.48 165.12" style="enable-background:new 0 0 1091.48 165.12;" xml:space="preserve">
<g>
	<path d="M103.42,13.2v1.2c-6.9,5.85-10.2,9-17.85,25.2l-19.2,41.25v27.45c0,5.25,1.05,7.5,3.45,8.85c0,0.3,0,1.05,0,1.05h-18.6
		c0,0,0-0.75,0-1.05c2.25-1.35,3.3-3.6,3.3-8.85V82.5c0,0-25.2-47.25-28.35-53.4c-3.3-6-8.4-10.8-13.05-14.7v-1.2h26.25v1.2
		c-3.9,3.9-3.9,10.2,1.8,20.85l24,45.15l20.4-43.35c6.3-14.1,5.55-18.15,0.15-22.65v-1.2H103.42z"/>
	<path d="M175.57,79.35c0,24-20.55,39.75-40.65,39.75c-20.25,0-37.5-12.3-37.5-33.3c0-24.75,20.55-39.75,40.65-39.75
		S175.57,58.65,175.57,79.35z M162.97,74.55c-5.25-18-19.35-30.75-36.45-25.8s-21.75,23.7-16.5,41.85c5.25,18,19.35,30.9,36.45,25.8
		C163.57,111.45,168.22,92.7,162.97,74.55z"/>
	<path d="M264.22,79.35c0,24-20.55,39.75-40.65,39.75c-20.25,0-37.5-12.3-37.5-33.3c0-24.75,20.55-39.75,40.65-39.75
		S264.22,58.65,264.22,79.35z M251.62,74.55c-5.25-18-19.35-30.75-36.45-25.8s-21.75,23.7-16.5,41.85c5.25,18,19.35,30.9,36.45,25.8
		C252.22,111.45,256.87,92.7,251.62,74.55z"/>
	<path d="M348.82,117.15c0,0.3,0,1.05,0,1.05h-18.6c0,0,0-0.75,0-1.05c2.4-1.35,3-3.9,2.55-8.85c-0.45-4.95-2.7-30.3-3.45-38.1
		c-1.05-11.25-6.6-24-19.5-21.45c-16.8,3.3-19.95,34.65-19.95,47.25v12.3c0,5.25,1.05,7.5,3.45,8.85c0,0.3,0,1.05,0,1.05h-18.6
		c0,0,0-0.75,0-1.05c2.25-1.35,3.3-3.6,3.3-8.85V57.6c0-5.25-0.45-6.75-3.3-7.2c0-0.3,0-1.05,0-1.05l14.1-3.3h1.05v37.2
		c1.95-16.8,7.05-37.2,26.55-37.2c12.3,0,22.8,8.4,24.6,26.4c1.5,14.55,3,30.3,3.6,35.85C345.22,113.7,346.57,115.8,348.82,117.15z"
		/>
	<path d="M374.17,19.8c0,8.1-5.1,15.3-13.5,22.05l-0.75-0.75c5.85-5.1,9.75-9.6,11.55-15.45c-1.5,1.35-3.3,2.25-5.4,2.25
		c-4.5,0-8.25-3.75-8.25-8.1c0-4.5,3.75-8.25,8.25-8.25C370.42,11.55,374.17,15.3,374.17,19.8z"/>
	<path d="M440.62,55.65l-3,13.8h-0.75c-4.65-12.75-14.25-22.05-22.8-22.05c-10.2,0-15.9,5.7-16.65,11.85
		c-2.1,20.1,48.45,14.7,46.8,39.15c-0.9,11.85-12,20.7-28.8,20.7c-12.15,0-21.15-4.05-29.25-10.05l3.15-15h0.75
		c5.1,10.5,16.35,22.95,29.7,22.95c10.8,0,18.9-5.55,19.8-12c2.85-19.65-49.5-10.95-45.9-40.35c1.2-9.75,6.6-18.6,22.95-18.6
		C424.42,46.05,434.62,51,440.62,55.65z"/>
	<path d="M574.87,90c0,21.15-24.9,28.2-44.25,28.2h-41.25c0,0,0-0.75,0-1.05c2.25-1.35,3.3-3.6,3.3-8.85V23.25
		c0-5.25-1.05-7.5-3.3-8.85c0-0.3,0-1.2,0-1.2h34.8c19.35,0,44.25,3.9,44.25,25.05c0,16.05-14.7,22.05-30.3,24
		C555.82,63.9,574.87,71.7,574.87,90z M504.52,61.8h19.65c24.6,0,32.4-10.35,32.4-23.55c0-13.35-7.8-23.85-32.4-23.85h-19.65V61.8z
		 M563.17,90c0-13.2-7.95-27-32.55-27h-26.1v54.15h26.1C555.22,117.15,563.17,103.35,563.17,90z"/>
	<path d="M663.52,79.35c0,24-20.55,39.75-40.65,39.75c-20.25,0-37.5-12.3-37.5-33.3c0-24.75,20.55-39.75,40.65-39.75
		S663.52,58.65,663.52,79.35z M650.92,74.55c-5.25-18-19.35-30.75-36.45-25.8c-17.1,4.95-21.75,23.7-16.5,41.85
		c5.25,18,19.35,30.9,36.45,25.8C651.52,111.45,656.17,92.7,650.92,74.55z"/>
	<path d="M743.91,118.2h-15.3V81.75c-1.95,16.95-7.05,37.35-26.55,37.35c-13.8,0-24.75-8.7-24.75-26.4V57.6
		c0-5.25-0.45-6.75-3.3-7.2c0-0.3,0-1.05,0-1.05l14.1-3.3h1.05v48.9c0,13.05,6.75,23.85,19.65,21.45c16.8-3.3,19.8-34.65,19.8-47.25
		V57.6c0-5.25-0.45-6.75-3.3-7.2c0-0.3,0-1.05,0-1.05l14.1-3.3h1.05v62.25c0,5.25,1.05,7.5,3.45,8.85
		C743.91,117.45,743.91,118.2,743.91,118.2z"/>
	<path d="M806.76,91.95c-2.85,14.1-9.15,27.15-24.9,27.15c-13.35,0-21.6-8.7-21.6-26.4V47.25h-8.85v-1.2
		c12.75,0,13.8-13.35,13.8-20.55h11.85c0,11.55-11.4,20.1-20.4,20.55h33.15v1.2h-17.7v47.7c0,13.05,3.6,23.1,16.35,21.45
		c9.9-1.35,14.85-13.2,17.55-24.75L806.76,91.95z"/>
	<path d="M826.87,117.15c0,0.3,0,1.05,0,1.05h-18.6c0,0,0-0.75,0-1.05c2.25-1.35,3.3-3.6,3.3-8.85V57.6c0-5.25-0.45-6.75-3.3-7.2
		c0-0.3,0-1.05,0-1.05l14.1-3.3h1.05v62.25C823.42,113.55,824.47,115.8,826.87,117.15z M810.07,26.85c0-3.9,3.15-7.05,7.05-7.05
		c3.9,0,7.05,3.15,7.05,7.05s-3.15,7.05-7.05,7.05C813.22,33.9,810.07,30.75,810.07,26.85z"/>
	<path d="M911.91,150.75c0,0.3,0,1.05,0,1.05l-14.1,3.3h-1.2V78c-2.7,17.4-10.35,41.1-31.35,41.1c-12.3,0-27.3-10.5-27.75-29.7
		c-1.05-37.05,33.45-43.35,50.25-43.35c7.8,0,13.65,3.3,16.65,3.15c2.1-0.15,2.85-2.1,3.15-3.15c0.3,0,0.9,0,0.9,0v97.5
		C908.46,148.79,908.91,150.29,911.91,150.75z M896.61,48.15c-0.75-0.15-4.2-1.35-9-1.35c-14.4,0.3-40.65,6.6-38.55,44.85
		c0.75,13.05,10.05,27.15,22.8,24.75c16.95-3.3,24.75-34.65,24.75-47.25V48.15z"/>
	<path d="M992.31,118.2h-15.3V81.75c-1.95,16.95-7.05,37.35-26.55,37.35c-13.8,0-24.75-8.7-24.75-26.4V57.6
		c0-5.25-0.45-6.75-3.3-7.2c0-0.3,0-1.05,0-1.05l14.1-3.3h1.05v48.9c0,13.05,6.75,23.85,19.65,21.45c16.8-3.3,19.8-34.65,19.8-47.25
		V57.6c0-5.25-0.45-6.75-3.3-7.2c0-0.3,0-1.05,0-1.05l14.1-3.3h1.05v62.25c0,5.25,1.05,7.5,3.45,8.85
		C992.31,117.45,992.31,118.2,992.31,118.2z"/>
	<path d="M1075.86,94.35c-0.9,10.65-10.35,24.75-31.65,24.75c-20.7,0-40.65-10.2-41.25-34.95c-0.75-25.95,22.8-37.2,39.3-38.1
		c12.75-0.6,30.3,5.55,32.4,23.7c-1.35,0-10.65,0-10.65,0h-3.3C1069.26,72,1077.06,80.7,1075.86,94.35z M1054.56,69.75h-38.85
		c-1.95,7.95-1.5,16.8,1.05,24c5.55,15.75,16.8,22.65,32.1,22.05c12.9-0.6,24.15-9.45,25.65-21.15
		C1076.31,79.05,1065.96,69.75,1054.56,69.75z M1016.01,68.55h47.85c-1.95-13.05-13.65-23.55-28.35-20.7
		C1025.31,49.8,1018.71,58.35,1016.01,68.55z"/>
</g>
</svg>
